<?xml version="1.0" encoding="UTF-8" standalone="no"?>
<!DOCTYPE svg PUBLIC "-//W3C//DTD SVG 1.1//EN"
 "http://www.w3.org/Graphics/SVG/1.1/DTD/svg11.dtd">
<!-- Generated by graphviz version 15.0.0 (20260523.1842)
 -->
<!-- Title: summarization_activity Pages: 1 -->
<svg width="1344pt" height="2328pt"
 viewBox="0.00 0.00 1344.00 2328.00" xmlns="http://www.w3.org/2000/svg" xmlns:xlink="http://www.w3.org/1999/xlink">
<g id="graph0" class="graph" transform="scale(1 1) rotate(0) translate(4 2324)">
<title>summarization_activity</title>
<polygon fill="white" stroke="none" points="-4,4 -4,-2324 1339.79,-2324 1339.79,4 -4,4"/>
<g id="clust2" class="cluster">
<title>cluster_n0</title>
<polygon fill="#f5f5f5" stroke="#666666" stroke-dasharray="5,2" points="225.29,-1853.85 225.29,-1986.63 576.29,-1986.63 576.29,-1853.85 225.29,-1853.85"/>
<text xml:space="preserve" text-anchor="middle" x="400.79" y="-1972.18" font-family="Helvetica,sans-Serif" font-size="11.00">Node 0 — Parallel Intake (ThreadPoolExecutor)</text>
</g>
<!-- START -->
<g id="node1" class="node">
<title>START</title>
<ellipse fill="#2d2d2d" stroke="black" cx="326.29" cy="-2298.23" rx="50.38" ry="21.76"/>
<text xml:space="preserve" text-anchor="middle" x="326.29" y="-2294.53" font-family="Helvetica,sans-Serif" font-size="11.00" fill="white">START</text>
</g>
<!-- recv -->
<g id="node9" class="node">
<title>recv</title>
<path fill="#dce8f7" stroke="black" d="M385.17,-2221.47C385.17,-2221.47 267.42,-2221.47 267.42,-2221.47 261.42,-2221.47 255.42,-2215.47 255.42,-2209.47 255.42,-2209.47 255.42,-2189.19 255.42,-2189.19 255.42,-2183.19 261.42,-2177.19 267.42,-2177.19 267.42,-2177.19 385.17,-2177.19 385.17,-2177.19 391.17,-2177.19 397.17,-2183.19 397.17,-2189.19 397.17,-2189.19 397.17,-2209.47 397.17,-2209.47 397.17,-2215.47 391.17,-2221.47 385.17,-2221.47"/>
<text xml:space="preserve" text-anchor="middle" x="326.29" y="-2202.38" font-family="Helvetica,sans-Serif" font-size="11.00">receive documents list</text>
<text xml:space="preserve" text-anchor="middle" x="326.29" y="-2188.88" font-family="Helvetica,sans-Serif" font-size="11.00">+ case_id</text>
</g>
<!-- START&#45;&gt;recv -->
<g id="edge1" class="edge">
<title>START&#45;&gt;recv</title>
<path fill="none" stroke="black" d="M326.29,-2276.21C326.29,-2263.6 326.29,-2247.29 326.29,-2233.02"/>
<polygon fill="black" stroke="black" points="329.79,-2233.16 326.29,-2223.16 322.79,-2233.16 329.79,-2233.16"/>
</g>
<!-- END_EMPTY -->
<g id="node2" class="node">
<title>END_EMPTY</title>
<ellipse fill="#2d2d2d" stroke="black" cx="101.29" cy="-1909.49" rx="101.29" ry="21.76"/>
<text xml:space="preserve" text-anchor="middle" x="101.29" y="-1905.79" font-family="Helvetica,sans-Serif" font-size="11.00" fill="white">END — empty chunks</text>
</g>
<!-- END_N1 -->
<g id="node3" class="node">
<title>END_N1</title>
<ellipse fill="#2d2d2d" stroke="black" cx="380.29" cy="-1323.06" rx="42.43" ry="21.76"/>
<text xml:space="preserve" text-anchor="middle" x="380.29" y="-1319.36" font-family="Helvetica,sans-Serif" font-size="11.00" fill="white">END</text>
</g>
<!-- END_N2 -->
<g id="node4" class="node">
<title>END_N2</title>
<ellipse fill="#2d2d2d" stroke="black" cx="535.29" cy="-1048.97" rx="42.43" ry="21.76"/>
<text xml:space="preserve" text-anchor="middle" x="535.29" y="-1045.27" font-family="Helvetica,sans-Serif" font-size="11.00" fill="white">END</text>
</g>
<!-- END_N3 -->
<g id="node5" class="node">
<title>END_N3</title>
<ellipse fill="#2d2d2d" stroke="black" cx="689.29" cy="-774.88" rx="42.43" ry="21.76"/>
<text xml:space="preserve" text-anchor="middle" x="689.29" y="-771.18" font-family="Helvetica,sans-Serif" font-size="11.00" fill="white">END</text>
</g>
<!-- END_N4A -->
<g id="node6" class="node">
<title>END_N4A</title>
<ellipse fill="#2d2d2d" stroke="black" cx="850.29" cy="-500.79" rx="42.43" ry="21.76"/>
<text xml:space="preserve" text-anchor="middle" x="850.29" y="-497.09" font-family="Helvetica,sans-Serif" font-size="11.00" fill="white">END</text>
</g>
<!-- END_N4B -->
<g id="node7" class="node">
<title>END_N4B</title>
<ellipse fill="#2d2d2d" stroke="black" cx="998.29" cy="-226.7" rx="42.43" ry="21.76"/>
<text xml:space="preserve" text-anchor="middle" x="998.29" y="-223" font-family="Helvetica,sans-Serif" font-size="11.00" fill="white">END</text>
</g>
<!-- END_OK -->
<g id="node8" class="node">
<title>END_OK</title>
<ellipse fill="#2d2d2d" stroke="black" cx="1187.29" cy="-21.76" rx="148.49" ry="21.76"/>
<text xml:space="preserve" text-anchor="middle" x="1187.29" y="-18.06" font-family="Helvetica,sans-Serif" font-size="11.00" fill="white">END — case_brief + rendered_brief</text>
</g>
<!-- empty_check -->
<g id="node19" class="node">
<title>empty_check</title>
<polygon fill="#fff3c7" stroke="black" points="326.29,-2122.19 237.79,-2077.91 326.29,-2033.63 414.79,-2077.91 326.29,-2122.19"/>
<text xml:space="preserve" text-anchor="middle" x="326.29" y="-2080.96" font-family="Helvetica,sans-Serif" font-size="11.00">documents</text>
<text xml:space="preserve" text-anchor="middle" x="326.29" y="-2067.46" font-family="Helvetica,sans-Serif" font-size="11.00">empty?</text>
</g>
<!-- recv&#45;&gt;empty_check -->
<g id="edge2" class="edge">
<title>recv&#45;&gt;empty_check</title>
<path fill="none" stroke="black" d="M326.29,-2176.7C326.29,-2164.71 326.29,-2149.19 326.29,-2134.06"/>
<polygon fill="black" stroke="black" points="329.79,-2134.15 326.29,-2124.15 322.79,-2134.15 329.79,-2134.15"/>
</g>
<!-- disambig -->
<g id="node10" class="node">
<title>disambig</title>
<path fill="#dce8f7" stroke="black" d="M485.54,-1817.85C485.54,-1817.85 343.04,-1817.85 343.04,-1817.85 337.04,-1817.85 331.04,-1811.85 331.04,-1805.85 331.04,-1805.85 331.04,-1785.57 331.04,-1785.57 331.04,-1779.57 337.04,-1773.57 343.04,-1773.57 343.04,-1773.57 485.54,-1773.57 485.54,-1773.57 491.54,-1773.57 497.54,-1779.57 497.54,-1785.57 497.54,-1785.57 497.54,-1805.85 497.54,-1805.85 497.54,-1811.85 491.54,-1817.85 485.54,-1817.85"/>
<text xml:space="preserve" text-anchor="middle" x="414.29" y="-1798.76" font-family="Helvetica,sans-Serif" font-size="11.00">disambiguate_defendants()</text>
<text xml:space="preserve" text-anchor="middle" x="414.29" y="-1785.26" font-family="Helvetica,sans-Serif" font-size="11.00">merge ghost party labels</text>
</g>
<!-- manifest -->
<g id="node11" class="node">
<title>manifest</title>
<path fill="#dce8f7" stroke="black" d="M479.92,-1718.57C479.92,-1718.57 348.67,-1718.57 348.67,-1718.57 342.67,-1718.57 336.67,-1712.57 336.67,-1706.57 336.67,-1706.57 336.67,-1686.29 336.67,-1686.29 336.67,-1680.29 342.67,-1674.29 348.67,-1674.29 348.67,-1674.29 479.92,-1674.29 479.92,-1674.29 485.92,-1674.29 491.92,-1680.29 491.92,-1686.29 491.92,-1686.29 491.92,-1706.57 491.92,-1706.57 491.92,-1712.57 485.92,-1718.57 479.92,-1718.57"/>
<text xml:space="preserve" text-anchor="middle" x="414.29" y="-1699.48" font-family="Helvetica,sans-Serif" font-size="11.00">build party_manifest</text>
<text xml:space="preserve" text-anchor="middle" x="414.29" y="-1685.98" font-family="Helvetica,sans-Serif" font-size="11.00">party → set of doc_types</text>
</g>
<!-- disambig&#45;&gt;manifest -->
<g id="edge8" class="edge">
<title>disambig&#45;&gt;manifest</title>
<path fill="none" stroke="black" d="M414.29,-1773.12C414.29,-1760.53 414.29,-1744.38 414.29,-1730.24"/>
<polygon fill="black" stroke="black" points="417.79,-1730.47 414.29,-1720.47 410.79,-1730.47 417.79,-1730.47"/>
</g>
<!-- n1 -->
<g id="node12" class="node">
<title>n1</title>
<path fill="#e8d5f5" stroke="black" d="M496.79,-1619.29C496.79,-1619.29 331.79,-1619.29 331.79,-1619.29 325.79,-1619.29 319.79,-1613.29 319.79,-1607.29 319.79,-1607.29 319.79,-1573.51 319.79,-1573.51 319.79,-1567.51 325.79,-1561.51 331.79,-1561.51 331.79,-1561.51 496.79,-1561.51 496.79,-1561.51 502.79,-1561.51 508.79,-1567.51 508.79,-1573.51 508.79,-1573.51 508.79,-1607.29 508.79,-1607.29 508.79,-1613.29 502.79,-1619.29 496.79,-1619.29"/>
<text xml:space="preserve" text-anchor="middle" x="414.29" y="-1600.2" font-family="Helvetica,sans-Serif" font-size="11.00">Node 1 — Role Classifier</text>
<text xml:space="preserve" text-anchor="middle" x="414.29" y="-1586.7" font-family="Helvetica,sans-Serif" font-size="11.00">classify each chunk → legal role</text>
<text xml:space="preserve" text-anchor="middle" x="414.29" y="-1573.2" font-family="Helvetica,sans-Serif" font-size="11.00">[low&#45;tier LLM]</text>
</g>
<!-- manifest&#45;&gt;n1 -->
<g id="edge9" class="edge">
<title>manifest&#45;&gt;n1</title>
<path fill="none" stroke="black" d="M414.29,-1673.87C414.29,-1661.48 414.29,-1645.52 414.29,-1630.94"/>
<polygon fill="black" stroke="black" points="417.79,-1631.16 414.29,-1621.16 410.79,-1631.16 417.79,-1631.16"/>
</g>
<!-- n1_check -->
<g id="node20" class="node">
<title>n1_check</title>
<polygon fill="#ffecc7" stroke="black" points="414.29,-1506.51 306.29,-1462.23 414.29,-1417.95 522.29,-1462.23 414.29,-1506.51"/>
<text xml:space="preserve" text-anchor="middle" x="414.29" y="-1465.28" font-family="Helvetica,sans-Serif" font-size="11.00">classified</text>
<text xml:space="preserve" text-anchor="middle" x="414.29" y="-1451.78" font-family="Helvetica,sans-Serif" font-size="11.00">chunks empty?</text>
</g>
<!-- n1&#45;&gt;n1_check -->
<g id="edge10" class="edge">
<title>n1&#45;&gt;n1_check</title>
<path fill="none" stroke="black" d="M414.29,-1561.08C414.29,-1548.35 414.29,-1532.86 414.29,-1518"/>
<polygon fill="black" stroke="black" points="417.79,-1518.33 414.29,-1508.33 410.79,-1518.33 417.79,-1518.33"/>
</g>
<!-- n2 -->
<g id="node13" class="node">
<title>n2</title>
<path fill="#e8d5f5" stroke="black" d="M660.79,-1351.95C660.79,-1351.95 477.79,-1351.95 477.79,-1351.95 471.79,-1351.95 465.79,-1345.95 465.79,-1339.95 465.79,-1339.95 465.79,-1306.17 465.79,-1306.17 465.79,-1300.17 471.79,-1294.17 477.79,-1294.17 477.79,-1294.17 660.79,-1294.17 660.79,-1294.17 666.79,-1294.17 672.79,-1300.17 672.79,-1306.17 672.79,-1306.17 672.79,-1339.95 672.79,-1339.95 672.79,-1345.95 666.79,-1351.95 660.79,-1351.95"/>
<text xml:space="preserve" text-anchor="middle" x="569.29" y="-1332.86" font-family="Helvetica,sans-Serif" font-size="11.00">Node 2 — Bullet Extractor</text>
<text xml:space="preserve" text-anchor="middle" x="569.29" y="-1319.36" font-family="Helvetica,sans-Serif" font-size="11.00">extract atomic legal ideas per chunk</text>
<text xml:space="preserve" text-anchor="middle" x="569.29" y="-1305.86" font-family="Helvetica,sans-Serif" font-size="11.00">[high&#45;tier LLM]</text>
</g>
<!-- n2_check -->
<g id="node21" class="node">
<title>n2_check</title>
<polygon fill="#ffecc7" stroke="black" points="569.29,-1239.17 498.04,-1194.89 569.29,-1150.61 640.54,-1194.89 569.29,-1239.17"/>
<text xml:space="preserve" text-anchor="middle" x="569.29" y="-1197.94" font-family="Helvetica,sans-Serif" font-size="11.00">bullets</text>
<text xml:space="preserve" text-anchor="middle" x="569.29" y="-1184.44" font-family="Helvetica,sans-Serif" font-size="11.00">empty?</text>
</g>
<!-- n2&#45;&gt;n2_check -->
<g id="edge13" class="edge">
<title>n2&#45;&gt;n2_check</title>
<path fill="none" stroke="black" d="M569.29,-1293.74C569.29,-1281.01 569.29,-1265.52 569.29,-1250.66"/>
<polygon fill="black" stroke="black" points="572.79,-1250.99 569.29,-1240.99 565.79,-1250.99 572.79,-1250.99"/>
</g>
<!-- n3 -->
<g id="node14" class="node">
<title>n3</title>
<path fill="#e8d5f5" stroke="black" d="M814.04,-1084.61C814.04,-1084.61 632.54,-1084.61 632.54,-1084.61 626.54,-1084.61 620.54,-1078.61 620.54,-1072.61 620.54,-1072.61 620.54,-1025.33 620.54,-1025.33 620.54,-1019.33 626.54,-1013.33 632.54,-1013.33 632.54,-1013.33 814.04,-1013.33 814.04,-1013.33 820.04,-1013.33 826.04,-1019.33 826.04,-1025.33 826.04,-1025.33 826.04,-1072.61 826.04,-1072.61 826.04,-1078.61 820.04,-1084.61 814.04,-1084.61"/>
<text xml:space="preserve" text-anchor="middle" x="723.29" y="-1065.52" font-family="Helvetica,sans-Serif" font-size="11.00">Node 3 — Aggregator</text>
<text xml:space="preserve" text-anchor="middle" x="723.29" y="-1052.02" font-family="Helvetica,sans-Serif" font-size="11.00">group bullets by role</text>
<text xml:space="preserve" text-anchor="middle" x="723.29" y="-1038.52" font-family="Helvetica,sans-Serif" font-size="11.00">label: متفق عليه / محل النزاع / خاص بطرف</text>
<text xml:space="preserve" text-anchor="middle" x="723.29" y="-1025.02" font-family="Helvetica,sans-Serif" font-size="11.00">[high&#45;tier LLM]</text>
</g>
<!-- n3_check -->
<g id="node22" class="node">
<title>n3_check</title>
<polygon fill="#ffecc7" stroke="black" points="723.29,-958.33 601.04,-914.05 723.29,-869.77 845.54,-914.05 723.29,-958.33"/>
<text xml:space="preserve" text-anchor="middle" x="723.29" y="-917.1" font-family="Helvetica,sans-Serif" font-size="11.00">role_aggregations</text>
<text xml:space="preserve" text-anchor="middle" x="723.29" y="-903.6" font-family="Helvetica,sans-Serif" font-size="11.00">empty?</text>
</g>
<!-- n3&#45;&gt;n3_check -->
<g id="edge16" class="edge">
<title>n3&#45;&gt;n3_check</title>
<path fill="none" stroke="black" d="M723.29,-1013.05C723.29,-999.94 723.29,-984.7 723.29,-970.2"/>
<polygon fill="black" stroke="black" points="726.79,-970.29 723.29,-960.29 719.79,-970.29 726.79,-970.29"/>
</g>
<!-- n4a -->
<g id="node15" class="node">
<title>n4a</title>
<path fill="#e8d5f5" stroke="black" d="M981.42,-803.77C981.42,-803.77 787.17,-803.77 787.17,-803.77 781.17,-803.77 775.17,-797.77 775.17,-791.77 775.17,-791.77 775.17,-757.99 775.17,-757.99 775.17,-751.99 781.17,-745.99 787.17,-745.99 787.17,-745.99 981.42,-745.99 981.42,-745.99 987.42,-745.99 993.42,-751.99 993.42,-757.99 993.42,-757.99 993.42,-791.77 993.42,-791.77 993.42,-797.77 987.42,-803.77 981.42,-803.77"/>
<text xml:space="preserve" text-anchor="middle" x="884.29" y="-784.68" font-family="Helvetica,sans-Serif" font-size="11.00">Node 4A — Thematic Clustering</text>
<text xml:space="preserve" text-anchor="middle" x="884.29" y="-771.18" font-family="Helvetica,sans-Serif" font-size="11.00">cluster bullets into 3&#45;7 themes per role</text>
<text xml:space="preserve" text-anchor="middle" x="884.29" y="-757.68" font-family="Helvetica,sans-Serif" font-size="11.00">[low&#45;tier LLM]</text>
</g>
<!-- n4a_check -->
<g id="node23" class="node">
<title>n4a_check</title>
<polygon fill="#ffecc7" stroke="black" points="884.29,-690.99 783.04,-646.71 884.29,-602.43 985.54,-646.71 884.29,-690.99"/>
<text xml:space="preserve" text-anchor="middle" x="884.29" y="-649.76" font-family="Helvetica,sans-Serif" font-size="11.00">themed_roles</text>
<text xml:space="preserve" text-anchor="middle" x="884.29" y="-636.26" font-family="Helvetica,sans-Serif" font-size="11.00">empty?</text>
</g>
<!-- n4a&#45;&gt;n4a_check -->
<g id="edge19" class="edge">
<title>n4a&#45;&gt;n4a_check</title>
<path fill="none" stroke="black" d="M884.29,-745.56C884.29,-732.83 884.29,-717.34 884.29,-702.48"/>
<polygon fill="black" stroke="black" points="887.79,-702.81 884.29,-692.81 880.79,-702.81 887.79,-702.81"/>
</g>
<!-- n4b -->
<g id="node16" class="node">
<title>n4b</title>
<path fill="#e8d5f5" stroke="black" d="M1117.04,-536.43C1117.04,-536.43 947.54,-536.43 947.54,-536.43 941.54,-536.43 935.54,-530.43 935.54,-524.43 935.54,-524.43 935.54,-477.15 935.54,-477.15 935.54,-471.15 941.54,-465.15 947.54,-465.15 947.54,-465.15 1117.04,-465.15 1117.04,-465.15 1123.04,-465.15 1129.04,-471.15 1129.04,-477.15 1129.04,-477.15 1129.04,-524.43 1129.04,-524.43 1129.04,-530.43 1123.04,-536.43 1117.04,-536.43"/>
<text xml:space="preserve" text-anchor="middle" x="1032.29" y="-517.34" font-family="Helvetica,sans-Serif" font-size="11.00">Node 4B — Theme Synthesis</text>
<text xml:space="preserve" text-anchor="middle" x="1032.29" y="-503.84" font-family="Helvetica,sans-Serif" font-size="11.00">generate Arabic prose per theme</text>
<text xml:space="preserve" text-anchor="middle" x="1032.29" y="-490.34" font-family="Helvetica,sans-Serif" font-size="11.00">cite bullet IDs</text>
<text xml:space="preserve" text-anchor="middle" x="1032.29" y="-476.84" font-family="Helvetica,sans-Serif" font-size="11.00">[high&#45;tier LLM]</text>
</g>
<!-- n4b_check -->
<g id="node24" class="node">
<title>n4b_check</title>
<polygon fill="#ffecc7" stroke="black" points="1032.29,-410.15 905.54,-365.87 1032.29,-321.59 1159.04,-365.87 1032.29,-410.15"/>
<text xml:space="preserve" text-anchor="middle" x="1032.29" y="-368.92" font-family="Helvetica,sans-Serif" font-size="11.00">role_theme</text>
<text xml:space="preserve" text-anchor="middle" x="1032.29" y="-355.42" font-family="Helvetica,sans-Serif" font-size="11.00">summaries empty?</text>
</g>
<!-- n4b&#45;&gt;n4b_check -->
<g id="edge22" class="edge">
<title>n4b&#45;&gt;n4b_check</title>
<path fill="none" stroke="black" d="M1032.29,-464.87C1032.29,-451.76 1032.29,-436.52 1032.29,-422.02"/>
<polygon fill="black" stroke="black" points="1035.79,-422.11 1032.29,-412.11 1028.79,-422.11 1035.79,-422.11"/>
</g>
<!-- n5 -->
<g id="node17" class="node">
<title>n5</title>
<path fill="#e8d5f5" stroke="black" d="M1278.79,-255.59C1278.79,-255.59 1095.79,-255.59 1095.79,-255.59 1089.79,-255.59 1083.79,-249.59 1083.79,-243.59 1083.79,-243.59 1083.79,-209.81 1083.79,-209.81 1083.79,-203.81 1089.79,-197.81 1095.79,-197.81 1095.79,-197.81 1278.79,-197.81 1278.79,-197.81 1284.79,-197.81 1290.79,-203.81 1290.79,-209.81 1290.79,-209.81 1290.79,-243.59 1290.79,-243.59 1290.79,-249.59 1284.79,-255.59 1278.79,-255.59"/>
<text xml:space="preserve" text-anchor="middle" x="1187.29" y="-236.5" font-family="Helvetica,sans-Serif" font-size="11.00">Node 5 — Brief Generator</text>
<text xml:space="preserve" text-anchor="middle" x="1187.29" y="-223" font-family="Helvetica,sans-Serif" font-size="11.00">produce 7&#45;section judge&#45;facing brief</text>
<text xml:space="preserve" text-anchor="middle" x="1187.29" y="-209.5" font-family="Helvetica,sans-Serif" font-size="11.00">[high&#45;tier LLM]</text>
</g>
<!-- mongodb -->
<g id="node18" class="node">
<title>mongodb</title>
<path fill="#d5e8d4" stroke="black" d="M1243.17,-142.81C1243.17,-142.81 1131.42,-142.81 1131.42,-142.81 1125.42,-142.81 1119.42,-136.81 1119.42,-130.81 1119.42,-130.81 1119.42,-110.53 1119.42,-110.53 1119.42,-104.53 1125.42,-98.53 1131.42,-98.53 1131.42,-98.53 1243.17,-98.53 1243.17,-98.53 1249.17,-98.53 1255.17,-104.53 1255.17,-110.53 1255.17,-110.53 1255.17,-130.81 1255.17,-130.81 1255.17,-136.81 1249.17,-142.81 1243.17,-142.81"/>
<text xml:space="preserve" text-anchor="middle" x="1187.29" y="-123.72" font-family="Helvetica,sans-Serif" font-size="11.00">Upsert to MongoDB</text>
<text xml:space="preserve" text-anchor="middle" x="1187.29" y="-110.22" font-family="Helvetica,sans-Serif" font-size="11.00">summaries collection</text>
</g>
<!-- n5&#45;&gt;mongodb -->
<g id="edge25" class="edge">
<title>n5&#45;&gt;mongodb</title>
<path fill="none" stroke="black" d="M1187.29,-197.55C1187.29,-184.33 1187.29,-168.49 1187.29,-154.71"/>
<polygon fill="black" stroke="black" points="1190.79,-154.76 1187.29,-144.76 1183.79,-154.76 1190.79,-154.76"/>
</g>
<!-- mongodb&#45;&gt;END_OK -->
<g id="edge26" class="edge">
<title>mongodb&#45;&gt;END_OK</title>
<path fill="none" stroke="black" d="M1187.29,-98.16C1187.29,-85.53 1187.29,-69.31 1187.29,-55.16"/>
<polygon fill="black" stroke="black" points="1190.79,-55.39 1187.29,-45.39 1183.79,-55.39 1190.79,-55.39"/>
</g>
<!-- empty_check&#45;&gt;END_EMPTY -->
<g id="edge3" class="edge">
<title>empty_check&#45;&gt;END_EMPTY</title>
<path fill="none" stroke="#cc0000" d="M291.14,-2050.91C249.43,-2020.06 180.22,-1968.87 137.89,-1937.56"/>
<polygon fill="#cc0000" stroke="#cc0000" points="140.11,-1934.85 129.99,-1931.71 135.95,-1940.47 140.11,-1934.85"/>
<text xml:space="preserve" text-anchor="middle" x="237.39" y="-1997.13" font-family="Helvetica,sans-Serif" font-size="10.00" fill="#cc0000">YES</text>
</g>
<!-- doc1 -->
<g id="node25" class="node">
<title>doc1</title>
<path fill="#d5e8d4" stroke="black" d="M395.29,-1945.13C395.29,-1945.13 257.29,-1945.13 257.29,-1945.13 251.29,-1945.13 245.29,-1939.13 245.29,-1933.13 245.29,-1933.13 245.29,-1885.85 245.29,-1885.85 245.29,-1879.85 251.29,-1873.85 257.29,-1873.85 257.29,-1873.85 395.29,-1873.85 395.29,-1873.85 401.29,-1873.85 407.29,-1879.85 407.29,-1885.85 407.29,-1885.85 407.29,-1933.13 407.29,-1933.13 407.29,-1939.13 401.29,-1945.13 395.29,-1945.13"/>
<text xml:space="preserve" text-anchor="middle" x="326.29" y="-1926.04" font-family="Helvetica,sans-Serif" font-size="11.00">process doc 1</text>
<text xml:space="preserve" text-anchor="middle" x="326.29" y="-1912.54" font-family="Helvetica,sans-Serif" font-size="11.00">classify doc_type (7 types)</text>
<text xml:space="preserve" text-anchor="middle" x="326.29" y="-1899.04" font-family="Helvetica,sans-Serif" font-size="11.00">classify party (6 types)</text>
<text xml:space="preserve" text-anchor="middle" x="326.29" y="-1885.54" font-family="Helvetica,sans-Serif" font-size="11.00">segment into chunks</text>
</g>
<!-- empty_check&#45;&gt;doc1 -->
<g id="edge4" class="edge">
<title>empty_check&#45;&gt;doc1</title>
<path fill="none" stroke="#336633" d="M326.29,-2033.18C326.29,-2009.68 326.29,-1980.7 326.29,-1956.81"/>
<polygon fill="#336633" stroke="#336633" points="329.79,-1957.05 326.29,-1947.06 322.79,-1957.06 329.79,-1957.05"/>
<text xml:space="preserve" text-anchor="middle" x="333.79" y="-1997.13" font-family="Helvetica,sans-Serif" font-size="10.00" fill="#336633">NO</text>
</g>
<!-- docN -->
<g id="node26" class="node">
<title>docN</title>
<path fill="#d5e8d4" stroke="black" d="M543.79,-1931.63C543.79,-1931.63 462.79,-1931.63 462.79,-1931.63 456.79,-1931.63 450.79,-1925.63 450.79,-1919.63 450.79,-1919.63 450.79,-1899.35 450.79,-1899.35 450.79,-1893.35 456.79,-1887.35 462.79,-1887.35 462.79,-1887.35 543.79,-1887.35 543.79,-1887.35 549.79,-1887.35 555.79,-1893.35 555.79,-1899.35 555.79,-1899.35 555.79,-1919.63 555.79,-1919.63 555.79,-1925.63 549.79,-1931.63 543.79,-1931.63"/>
<text xml:space="preserve" text-anchor="middle" x="503.29" y="-1912.54" font-family="Helvetica,sans-Serif" font-size="11.00">process doc N</text>
<text xml:space="preserve" text-anchor="middle" x="503.29" y="-1899.04" font-family="Helvetica,sans-Serif" font-size="11.00">…</text>
</g>
<!-- empty_check&#45;&gt;docN -->
<g id="edge5" class="edge">
<title>empty_check&#45;&gt;docN</title>
<path fill="none" stroke="#336633" d="M358.04,-2049.09C388.3,-2022.56 429.29,-1986.63 429.29,-1986.63 429.29,-1986.63 453.54,-1961.68 474.28,-1940.34"/>
<polygon fill="#336633" stroke="#336633" points="476.77,-1942.8 481.23,-1933.19 471.75,-1937.92 476.77,-1942.8"/>
<text xml:space="preserve" text-anchor="middle" x="426.08" y="-1997.13" font-family="Helvetica,sans-Serif" font-size="10.00" fill="#336633">NO</text>
</g>
<!-- n1_check&#45;&gt;END_N1 -->
<g id="edge11" class="edge">
<title>n1_check&#45;&gt;END_N1</title>
<path fill="none" stroke="#cc0000" d="M404.46,-1421.55C399.3,-1400.75 393.07,-1375.6 388.22,-1356.06"/>
<polygon fill="#cc0000" stroke="#cc0000" points="391.65,-1355.32 385.85,-1346.46 384.85,-1357.01 391.65,-1355.32"/>
<text xml:space="preserve" text-anchor="middle" x="406.4" y="-1381.45" font-family="Helvetica,sans-Serif" font-size="10.00" fill="#cc0000">YES</text>
</g>
<!-- n1_check&#45;&gt;n2 -->
<g id="edge12" class="edge">
<title>n1_check&#45;&gt;n2</title>
<path fill="none" stroke="#336633" d="M447.93,-1431.47C471.66,-1410.46 503.58,-1382.21 528.73,-1359.96"/>
<polygon fill="#336633" stroke="#336633" points="531.01,-1362.61 536.18,-1353.36 526.37,-1357.37 531.01,-1362.61"/>
<text xml:space="preserve" text-anchor="middle" x="513.18" y="-1381.45" font-family="Helvetica,sans-Serif" font-size="10.00" fill="#336633">NO</text>
</g>
<!-- n2_check&#45;&gt;END_N2 -->
<g id="edge14" class="edge">
<title>n2_check&#45;&gt;END_N2</title>
<path fill="none" stroke="#cc0000" d="M560.27,-1155.7C554.83,-1132.69 547.99,-1103.72 542.84,-1081.92"/>
<polygon fill="#cc0000" stroke="#cc0000" points="546.3,-1081.34 540.6,-1072.42 539.49,-1082.95 546.3,-1081.34"/>
<text xml:space="preserve" text-anchor="middle" x="562.42" y="-1114.11" font-family="Helvetica,sans-Serif" font-size="10.00" fill="#cc0000">YES</text>
</g>
<!-- n2_check&#45;&gt;n3 -->
<g id="edge15" class="edge">
<title>n2_check&#45;&gt;n3</title>
<path fill="none" stroke="#336633" d="M597.18,-1167.83C619.55,-1146.92 651.41,-1117.15 677.51,-1092.76"/>
<polygon fill="#336633" stroke="#336633" points="679.74,-1095.46 684.65,-1086.08 674.96,-1090.35 679.74,-1095.46"/>
<text xml:space="preserve" text-anchor="middle" x="663.01" y="-1114.11" font-family="Helvetica,sans-Serif" font-size="10.00" fill="#336633">NO</text>
</g>
<!-- n3_check&#45;&gt;END_N3 -->
<g id="edge17" class="edge">
<title>n3_check&#45;&gt;END_N3</title>
<path fill="none" stroke="#cc0000" d="M713.37,-873.01C708.21,-852.21 702,-827.16 697.18,-807.71"/>
<polygon fill="#cc0000" stroke="#cc0000" points="700.62,-807.03 694.82,-798.17 693.83,-808.71 700.62,-807.03"/>
<text xml:space="preserve" text-anchor="middle" x="715.4" y="-833.27" font-family="Helvetica,sans-Serif" font-size="10.00" fill="#cc0000">YES</text>
</g>
<!-- n3_check&#45;&gt;n4a -->
<g id="edge18" class="edge">
<title>n3_check&#45;&gt;n4a</title>
<path fill="none" stroke="#336633" d="M759.02,-882.61C783.74,-861.55 816.72,-833.45 842.64,-811.37"/>
<polygon fill="#336633" stroke="#336633" points="844.64,-814.26 849.98,-805.11 840.1,-808.93 844.64,-814.26"/>
<text xml:space="preserve" text-anchor="middle" x="825.71" y="-833.27" font-family="Helvetica,sans-Serif" font-size="10.00" fill="#336633">NO</text>
</g>
<!-- n4a_check&#45;&gt;END_N4A -->
<g id="edge20" class="edge">
<title>n4a_check&#45;&gt;END_N4A</title>
<path fill="none" stroke="#cc0000" d="M874.91,-606C869.54,-583.26 862.89,-555.09 857.85,-533.78"/>
<polygon fill="#cc0000" stroke="#cc0000" points="861.29,-533.12 855.59,-524.19 854.48,-534.73 861.29,-533.12"/>
<text xml:space="preserve" text-anchor="middle" x="877.42" y="-565.93" font-family="Helvetica,sans-Serif" font-size="10.00" fill="#cc0000">YES</text>
</g>
<!-- n4a_check&#45;&gt;n4b -->
<g id="edge21" class="edge">
<title>n4a_check&#45;&gt;n4b</title>
<path fill="none" stroke="#336633" d="M915.32,-615.54C936.47,-594.97 964.8,-567.42 988.28,-544.59"/>
<polygon fill="#336633" stroke="#336633" points="990.55,-547.27 995.27,-537.79 985.67,-542.25 990.55,-547.27"/>
<text xml:space="preserve" text-anchor="middle" x="974.65" y="-565.93" font-family="Helvetica,sans-Serif" font-size="10.00" fill="#336633">NO</text>
</g>
<!-- n4b_check&#45;&gt;END_N4B -->
<g id="edge23" class="edge">
<title>n4b_check&#45;&gt;END_N4B</title>
<path fill="none" stroke="#cc0000" d="M1022.37,-324.83C1017.21,-304.03 1011,-278.98 1006.18,-259.53"/>
<polygon fill="#cc0000" stroke="#cc0000" points="1009.62,-258.85 1003.82,-249.99 1002.83,-260.53 1009.62,-258.85"/>
<text xml:space="preserve" text-anchor="middle" x="1024.4" y="-285.09" font-family="Helvetica,sans-Serif" font-size="10.00" fill="#cc0000">YES</text>
</g>
<!-- n4b_check&#45;&gt;n5 -->
<g id="edge24" class="edge">
<title>n4b_check&#45;&gt;n5</title>
<path fill="none" stroke="#336633" d="M1067.46,-333.74C1091.12,-312.81 1122.35,-285.17 1147,-263.36"/>
<polygon fill="#336633" stroke="#336633" points="1149.12,-266.15 1154.29,-256.91 1144.48,-260.91 1149.12,-266.15"/>
<text xml:space="preserve" text-anchor="middle" x="1131.18" y="-285.09" font-family="Helvetica,sans-Serif" font-size="10.00" fill="#336633">NO</text>
</g>
<!-- doc1&#45;&gt;disambig -->
<g id="edge6" class="edge">
<title>doc1&#45;&gt;disambig</title>
<path fill="none" stroke="black" d="M353.9,-1873.43C365.56,-1858.62 379.01,-1841.53 390.25,-1827.24"/>
<polygon fill="black" stroke="black" points="392.91,-1829.53 396.35,-1819.5 387.41,-1825.2 392.91,-1829.53"/>
</g>
<!-- docN&#45;&gt;disambig -->
<g id="edge7" class="edge">
<title>docN&#45;&gt;disambig</title>
<path fill="none" stroke="black" d="M486.13,-1886.94C472.59,-1869.93 453.53,-1845.99 438.44,-1827.04"/>
<polygon fill="black" stroke="black" points="441.31,-1825.02 432.34,-1819.38 435.83,-1829.38 441.31,-1825.02"/>
</g>
</g>
</svg>
